# xmcd
#
# Track frame offsets:
#	150
#	17715
#	37517
#	52779
#	72457
#	86295
#	104653
#	118802
#	137877
#	151503
#	171577
#	190024
#
# Disc length: 2758 seconds
#
# Revision: 0
# Processed by: cddbd v1.5.2PL0 Copyright (c) Steve Scherf et al.
# Submitted via: EasyCDDAExtractor 11.0.2.1
#
DISCID=940ac40c
DTITLE=Carolann Ames - So Long Abilene
DYEAR=2008
DGENRE=Country
TTITLE0=Almost Lucky
TTITLE1=Broken Down Dream
TTITLE2=Love Is A Wildfire
TTITLE3=7th Avenue
TTITLE4=So Long Abilene
TTITLE5=Lavender Sky
TTITLE6=Bridgewater Creek
TTITLE7=Cheyenne
TTITLE8=Answer The Door
TTITLE9=Where To Now St Peter
TTITLE10=I Remain
TTITLE11=Letting Go
EXTD=
EXTT0=
EXTT1=
EXTT2=
EXTT3=
EXTT4=
EXTT5=
EXTT6=
EXTT7=
EXTT8=
EXTT9=
EXTT10=
EXTT11=
PLAYORDER=
